<?xml version="1.0" encoding="UTF-8"?>
<svg id="Layer_1" xmlns="http://www.w3.org/2000/svg" viewBox="0 0 1723.89 337.94">
  <defs>
    <style>
      .cls-1 {
        letter-spacing: 1em;
      }

      .cls-2 {
        font-family: EthosNova-Medium, 'Ethos Nova';
        font-size: 60px;
        font-weight: 500;
      }

      .cls-2, .cls-3, .cls-4 {
        fill: #fff;
      }

      .cls-4 {
        font-family: Cyberiada-Light, Cyberiada;
        font-size: 178.73px;
        font-weight: 300;
      }

      .cls-5 {
        fill: none;
        stroke: #fff;
        stroke-miterlimit: 10;
        stroke-width: 17.63px;
      }

      .cls-6 {
        letter-spacing: 1.02em;
      }

      .cls-7 {
        letter-spacing: .94em;
      }
    </style>
  </defs>
  <g>
    <path class="cls-3" d="M0,125.68l3.74,1.24C27.38,55.48,94.71,3.94,174.07,3.94c99.07,0,179.38,80.31,179.38,179.38,0,63.59-33.09,119.45-82.99,151.31l2.12,3.32c53.1-33.9,84.81-91.7,84.81-154.63C357.39,82.24,275.15,0,174.07,0,94.83,0,24.88,50.51,0,125.68"/>
    <path class="cls-5" d="M229.79,225.82l-105.64-109.96c-5.94-5.94-14.59-7.84-21.61-4.86-6.21,2.43-9.73,7.84-9.73,14.32v108.34h-4.59v-108.34c0-8.38,4.59-15.4,12.43-18.64,8.92-3.78,19.45-1.35,26.75,5.94l105.64,109.96c5.94,5.94,14.59,7.84,21.61,4.86,6.21-2.43,9.73-7.84,9.73-14.32v-108.07h4.59v108.07c0,8.38-4.59,15.4-12.43,18.64-2.97,1.08-5.94,1.89-8.92,1.89-6.48,0-12.97-2.7-17.83-7.84Z"/>
  </g>
  <text class="cls-4" transform="translate(392.72 181.96)"><tspan x="0" y="0">NEXABLEND</tspan></text>
  <text class="cls-2" transform="translate(383.89 271.63)"><tspan class="cls-6" x="0" y="0">DIGI</tspan><tspan class="cls-7" x="367.61" y="0">T</tspan><tspan class="cls-1" x="462.62" y="0">A</tspan><tspan class="cls-6" x="565.31" y="0">L</tspan></text>
</svg>